<svg viewBox="-0.25 -0.25 23.5502 21.5" fill="none" xmlns="http://www.w3.org/2000/svg">
  <path d="M16.4482 0.25C20.0929 0.25 22.7998 3.08543 22.7998 6.9668C22.7998 9.39264 21.6587 11.7705 19.7686 14.041C17.8773 16.3128 15.2195 18.498 12.1455 20.5439L12.1387 20.5488L12.1309 20.5527C11.9836 20.6367 11.7538 20.7499 11.5254 20.75C11.3008 20.75 11.0581 20.6402 10.9102 20.5469L10.9053 20.5439C7.82418 18.4979 5.16598 16.3129 3.27637 14.041C1.38781 11.7703 0.25 9.39246 0.25 6.9668C0.25002 3.08555 2.95706 0.250177 6.60156 0.25C8.57152 0.25 10.4957 1.31382 11.5244 3.02148C12.5537 1.31267 14.478 0.250004 16.4482 0.25ZM16.4502 1.42871C14.4415 1.42877 13.0014 2.65927 12.1406 4.24902L12.1348 4.25879C12.0637 4.37692 11.9877 4.48884 11.8936 4.56934C11.7871 4.66024 11.6654 4.70501 11.5254 4.70508C11.3888 4.70508 11.2636 4.66238 11.1543 4.57227C11.0541 4.4897 10.9773 4.37557 10.9102 4.24902V4.25C10.0391 2.65662 8.60886 1.42871 6.60059 1.42871C3.6214 1.42885 1.42873 3.68227 1.42871 6.9668C1.42871 9.10441 2.52432 11.299 4.35059 13.4453C6.06007 15.4543 8.39069 17.398 10.9961 19.1836L11.5215 19.5391L11.5225 19.54C11.5234 19.5406 11.5245 19.5414 11.5254 19.542C11.5269 19.541 11.5286 19.5401 11.5303 19.5391L12.0547 19.1836C14.6598 17.3979 16.9908 15.4544 18.7002 13.4453C20.5263 11.299 21.6211 9.10441 21.6211 6.9668C21.6211 3.68253 19.416 1.42871 16.4502 1.42871Z" fill="currentColor" stroke="currentColor" stroke-width="0.5"/>
</svg>
